<svg width="483" height="150" viewBox="0 0 483 171" fill="none" xmlns="http://www.w3.org/2000/svg">
<path d="M17.4233 92.1761V86.0909H46.0938V92.1761H35.4062V121H28.1108V92.1761H17.4233ZM50.8153 121V86.0909H64.5881C67.2244 86.0909 69.4744 86.5625 71.3381 87.5057C73.2131 88.4375 74.6392 89.7614 75.6165 91.4773C76.6051 93.1818 77.0994 95.1875 77.0994 97.4943C77.0994 99.8125 76.5994 101.807 75.5994 103.477C74.5994 105.136 73.1506 106.409 71.2528 107.295C69.3665 108.182 67.0824 108.625 64.4006 108.625H55.179V102.693H63.2074C64.6165 102.693 65.7869 102.5 66.7188 102.114C67.6506 101.727 68.3438 101.148 68.7983 100.375C69.2642 99.6023 69.4972 98.642 69.4972 97.4943C69.4972 96.3352 69.2642 95.358 68.7983 94.5625C68.3438 93.767 67.6449 93.1648 66.7017 92.7557C65.7699 92.3352 64.5938 92.125 63.1733 92.125H58.196V121H50.8153ZM69.6676 105.114L78.3438 121H70.196L61.7074 105.114H69.6676ZM167.061 86.0909V121H160.686L145.499 99.0284H145.243V121H137.862V86.0909H144.339L159.408 108.045H159.714V86.0909H167.061ZM192.097 96.1307C191.96 94.7557 191.375 93.6875 190.341 92.9261C189.307 92.1648 187.903 91.7841 186.131 91.7841C184.926 91.7841 183.909 91.9545 183.08 92.2955C182.25 92.625 181.614 93.0852 181.17 93.6761C180.739 94.267 180.523 94.9375 180.523 95.6875C180.5 96.3125 180.631 96.858 180.915 97.3239C181.21 97.7898 181.614 98.1932 182.125 98.5341C182.636 98.8636 183.227 99.1534 183.898 99.4034C184.568 99.642 185.284 99.8466 186.045 100.017L189.182 100.767C190.705 101.108 192.102 101.562 193.375 102.131C194.648 102.699 195.75 103.398 196.682 104.227C197.614 105.057 198.335 106.034 198.847 107.159C199.369 108.284 199.636 109.574 199.648 111.028C199.636 113.165 199.091 115.017 198.011 116.585C196.943 118.142 195.398 119.352 193.375 120.216C191.364 121.068 188.938 121.494 186.097 121.494C183.278 121.494 180.824 121.062 178.733 120.199C176.653 119.335 175.028 118.057 173.858 116.364C172.699 114.659 172.091 112.551 172.034 110.04H179.176C179.256 111.21 179.591 112.187 180.182 112.972C180.784 113.744 181.585 114.33 182.585 114.727C183.597 115.114 184.739 115.307 186.011 115.307C187.261 115.307 188.347 115.125 189.267 114.761C190.199 114.398 190.92 113.892 191.432 113.244C191.943 112.597 192.199 111.852 192.199 111.011C192.199 110.227 191.966 109.568 191.5 109.034C191.045 108.5 190.375 108.045 189.489 107.67C188.614 107.295 187.54 106.955 186.267 106.648L182.466 105.693C179.523 104.977 177.199 103.858 175.494 102.335C173.79 100.812 172.943 98.7614 172.955 96.1818C172.943 94.0682 173.506 92.2216 174.642 90.642C175.79 89.0625 177.364 87.8295 179.364 86.9432C181.364 86.0568 183.636 85.6136 186.182 85.6136C188.773 85.6136 191.034 86.0568 192.966 86.9432C194.909 87.8295 196.42 89.0625 197.5 90.642C198.58 92.2216 199.136 94.0511 199.17 96.1307H192.097ZM235.413 98.3125H227.947C227.811 97.3466 227.533 96.4886 227.112 95.7386C226.692 94.9773 226.152 94.3295 225.493 93.7955C224.834 93.2614 224.072 92.8523 223.209 92.5682C222.357 92.2841 221.43 92.142 220.43 92.142C218.624 92.142 217.05 92.5909 215.709 93.4886C214.368 94.375 213.328 95.6705 212.589 97.375C211.851 99.0682 211.482 101.125 211.482 103.545C211.482 106.034 211.851 108.125 212.589 109.818C213.339 111.511 214.385 112.79 215.726 113.653C217.067 114.517 218.618 114.949 220.379 114.949C221.368 114.949 222.283 114.818 223.124 114.557C223.976 114.295 224.732 113.915 225.391 113.415C226.05 112.903 226.595 112.284 227.027 111.557C227.47 110.83 227.777 110 227.947 109.068L235.413 109.102C235.22 110.705 234.737 112.25 233.964 113.739C233.203 115.216 232.175 116.54 230.879 117.71C229.595 118.869 228.061 119.79 226.277 120.472C224.504 121.142 222.499 121.477 220.26 121.477C217.146 121.477 214.362 120.773 211.908 119.364C209.464 117.955 207.533 115.915 206.112 113.244C204.703 110.574 203.999 107.341 203.999 103.545C203.999 99.7386 204.714 96.5 206.146 93.8295C207.578 91.1591 209.521 89.125 211.976 87.7273C214.43 86.3182 217.192 85.6136 220.26 85.6136C222.283 85.6136 224.158 85.8977 225.885 86.4659C227.624 87.0341 229.163 87.8636 230.504 88.9545C231.845 90.0341 232.936 91.358 233.777 92.9261C234.629 94.4943 235.175 96.2898 235.413 98.3125ZM240.706 121V86.0909H264.229V92.1761H248.087V100.494H263.018V106.58H248.087V114.915H264.297V121H240.706ZM299.295 86.0909V121H292.92L277.733 99.0284H277.477V121H270.097V86.0909H276.574L291.642 108.045H291.949V86.0909H299.295ZM317.768 121H305.393V86.0909H317.871C321.382 86.0909 324.405 86.7898 326.939 88.1875C329.473 89.5739 331.422 91.5682 332.786 94.1705C334.161 96.7727 334.848 99.8864 334.848 103.511C334.848 107.148 334.161 110.273 332.786 112.886C331.422 115.5 329.462 117.506 326.905 118.903C324.359 120.301 321.314 121 317.768 121ZM312.774 114.676H317.462C319.643 114.676 321.479 114.29 322.967 113.517C324.467 112.733 325.592 111.523 326.342 109.886C327.104 108.239 327.484 106.114 327.484 103.511C327.484 100.932 327.104 98.8239 326.342 97.1875C325.592 95.5511 324.473 94.3466 322.984 93.5739C321.496 92.8011 319.661 92.4148 317.479 92.4148H312.774V114.676Z" fill="#86B6F6"/>
<path d="M76.801 125L108 68.0408L139.199 125H76.801Z" fill="#EEF5FF" stroke="black"/>
<line x1="83" y1="91.5" x2="134" y2="91.5" stroke="black"/>
</svg>
